<svg height="512pt" viewBox="0 -31 512 512" width="512pt" xmlns="http://www.w3.org/2000/svg">
    <g fill="#F7FEFC">
        <path d="m127.359375 131.28125h-42.320313c-5.597656 0-10.140624 4.539062-10.140624 10.140625v20.472656h-64.757813c-5.601563 0-10.140625 4.539063-10.140625 10.140625v105.527344c0 5.601562 4.539062 10.140625 10.140625 10.140625h64.757813v20.476563c0 5.597656 4.542968 10.140624 10.140624 10.140624h42.320313c5.601563 0 10.140625-4.542968 10.140625-10.140624v-166.757813c0-5.601563-4.539062-10.140625-10.140625-10.140625zm-107.078125 136.144531v-85.25h54.617188v85.25zm96.941406 30.613281h-22.042968v-146.476562h22.042968zm0 0"/><path d="m202.261719 79.648438h-42.320313c-5.601562 0-10.140625 4.542968-10.140625 10.140624v270.019532c0 5.601562 4.539063 10.140625 10.140625 10.140625h42.320313c5.597656 0 10.140625-4.539063 10.140625-10.140625v-270.019532c0-5.597656-4.542969-10.140624-10.140625-10.140624zm-10.140625 270.023437h-22.042969v-249.742187h22.042969zm0 0"/><path d="m277.160156 0h-42.320312c-5.601563 0-10.140625 4.539062-10.140625 10.140625v429.320313c0 5.601562 4.539062 10.140624 10.140625 10.140624h42.320312c5.601563 0 10.140625-4.539062 10.140625-10.140624v-316.6875c0-13.019532-20.28125-13.039063-20.28125 0v306.546874h-22.039062v-409.039062h22.039062v21.019531c0 13.019531 20.28125 13.039063 20.28125 0v-31.160156c0-5.601563-4.539062-10.140625-10.140625-10.140625zm0 0"/><path d="m352.058594 131.28125h-42.320313c-5.597656 0-10.140625 4.539062-10.140625 10.140625v166.757813c0 5.601562 4.542969 10.140624 10.140625 10.140624h42.320313c5.601562 0 10.140625-4.539062 10.140625-10.140624v-166.757813c0-5.601563-4.539063-10.140625-10.140625-10.140625zm-10.136719 166.757812h-22.042969v-146.480468h22.042969zm0 0"/><path d="m501.859375 161.898438h-64.757813v-72.109376c0-5.597656-4.542968-10.140624-10.140624-10.140624h-42.320313c-5.601563 0-10.140625 4.542968-10.140625 10.140624v270.019532c0 5.601562 4.539062 10.140625 10.140625 10.140625h42.320313c5.597656 0 10.140624-4.539063 10.140624-10.140625v-72.105469h64.757813c5.601563 0 10.140625-4.539063 10.140625-10.140625v-105.527344c0-5.597656-4.539062-10.136718-10.140625-10.136718zm-85.039063 187.773437h-22.042968v-249.742187h22.042968zm74.898438-82.246094h-54.617188v-85.25h54.617188zm0 0"/><path d="m330.898438 332.414062c-5.597657 0-10.140626 4.539063-10.140626 10.140626v36.445312c0 13.019531 20.28125 13.039062 20.28125 0v-36.445312c0-5.601563-4.539062-10.140626-10.140624-10.140626zm0 0"/><path d="m480.699219 300.984375c-5.601563 0-10.140625 4.539063-10.140625 10.136719v36.445312c0 13.019532 20.28125 13.039063 20.28125 0v-36.445312c0-5.597656-4.542969-10.136719-10.140625-10.136719zm0 0"/><path d="m106.199219 332.414062c-5.597657 0-10.140625 4.539063-10.140625 10.140626v36.445312c0 13.019531 20.28125 13.039062 20.28125 0v-36.445312c0-5.601563-4.539063-10.140626-10.140625-10.140626zm0 0"/><path d="m106.199219 118.40625c5.601562 0 10.140625-4.542969 10.140625-10.140625v-62.808594c0-13.023437-20.28125-13.039062-20.28125 0v62.808594c0 5.597656 4.542968 10.140625 10.140625 10.140625zm0 0"/><path d="m405.796875 61.871094c5.601563 0 10.140625-4.539063 10.140625-10.140625v-37.085938c0-13.019531-20.277344-13.039062-20.277344 0v37.085938c0 5.601562 4.539063 10.140625 10.136719 10.140625zm0 0"/><path d="m277.160156 72.578125c-5.421875 0-10.050781 4.546875-10.121094 9.96875-.074218 5.625 4.535157 10.273437 10.144532 10.277344 5.597656.007812 10.226562-4.75 10.109375-10.34375-.113281-5.382813-4.753907-9.902344-10.132813-9.902344zm0 0"/>
   </g>
</svg>